<svg width="1309" height="346" viewBox="0 0 1309 346" fill="none" xmlns="http://www.w3.org/2000/svg">
<path d="M0 0H1309V321H0V0Z" fill="#030615"/>
<path d="M424 107.704H619V213.296H424V107.704Z" fill="#EFF34D"/>
<path d="M471.45 207.588L439.784 121.93H463.565L487.601 194.746H480.861L504.77 122.059L526.643 121.93L493.451 207.588H471.45Z" fill="#030615"/>
<path d="M565.811 209.386C561.487 209.386 557.587 209.172 554.111 208.744C550.635 208.316 547.413 207.674 544.446 206.818C541.478 205.962 538.596 204.849 535.798 203.479V183.702C539.698 186.87 544.107 189.267 549.024 190.893C553.941 192.52 558.605 193.333 563.013 193.333C566.913 193.333 569.881 192.606 571.915 191.15C574.035 189.609 575.095 187.298 575.095 184.215C575.095 181.904 574.12 180.063 572.17 178.693C570.305 177.238 567.803 175.996 564.666 174.969C561.53 173.856 558.011 172.615 554.111 171.245C551.652 170.474 549.236 169.49 546.862 168.291C544.488 167.092 542.369 165.594 540.503 163.796C538.638 161.913 537.155 159.644 536.052 156.99C534.95 154.336 534.399 151.082 534.399 147.23C534.399 143.719 535.035 140.338 536.307 137.084C537.578 133.831 539.528 130.92 542.157 128.352C544.87 125.783 548.303 123.771 552.458 122.316C556.612 120.775 561.487 120.004 567.083 120.004C570.559 120.004 573.611 120.218 576.239 120.646C578.952 121.074 581.538 121.716 583.997 122.572C586.456 123.343 588.957 124.37 591.5 125.655V145.689C589.55 144.062 587.346 142.564 584.887 141.194C582.513 139.738 580.012 138.54 577.384 137.598C574.756 136.656 572 136.142 569.118 136.057C566.574 135.971 564.243 136.228 562.123 136.827C560.003 137.427 558.35 138.411 557.163 139.781C555.976 141.065 555.383 142.735 555.383 144.79C555.383 147.187 556.103 149.07 557.545 150.44C558.986 151.81 560.978 152.966 563.522 153.908C566.065 154.764 568.906 155.706 572.043 156.733C575.519 157.76 578.698 158.916 581.581 160.2C584.548 161.399 587.134 162.94 589.338 164.824C591.543 166.707 593.238 169.019 594.425 171.758C595.612 174.498 596.206 177.794 596.206 181.647C596.206 186.784 595.019 191.493 592.645 195.774C590.271 199.969 586.837 203.308 582.344 205.79C577.85 208.188 572.339 209.386 565.811 209.386Z" fill="#030615"/>
<g filter="url(#filter0_d_71_14)">
<path d="M87.431 114.209C87.431 114.209 79.6192 109.273 88.9934 102.683L110.834 85.5648C110.834 85.5648 117.083 79.8018 123.691 84.823L325.236 218.571V282.706C325.236 282.706 325.138 292.777 310.393 291.664L87.431 114.209Z" fill="#ECF00D"/>
</g>
<path d="M139.38 155.548L87.4311 196.945C87.4311 196.945 82.093 200.426 87.4311 206.645L111.55 225.874C111.55 225.874 117.279 231.266 125.741 225.133L180.815 188.529L139.38 155.548Z" fill="#ECF00D"/>
<path d="M230.582 155.891L325.854 92.1265L325.236 28.3339C325.236 28.3339 321.167 14.4113 307.594 21.6579L180.815 122.796L230.582 155.891Z" fill="url(#paint0_linear_71_14)"/>
<g filter="url(#filter1_d_71_14)">
<path d="M310.393 291.75C315.926 296.714 322.632 295.088 322.632 295.088L396.876 263.02C406.381 257.343 405.046 250.296 405.046 250.296V58.8037C405.046 50.3875 395.216 47.4774 395.216 47.4774L330.867 20.2885C316.805 12.671 307.594 21.6579 307.594 21.6579C307.594 21.6579 319.442 14.1831 325.236 28.3339V281.536C325.236 283.276 324.812 284.988 323.966 286.529C322.274 289.524 318.596 292.32 309.775 291.15L310.393 291.75Z" fill="url(#paint1_linear_71_14)"/>
</g>
<path d="M655.6 192.277C644.933 192.277 636.767 189.477 631.1 183.877C625.5 178.21 622.7 169.477 622.7 157.677C622.7 146.21 625.4 137.544 630.8 131.677C636.2 125.744 644.467 122.777 655.6 122.777C659.133 122.777 662.7 123.21 666.3 124.077C669.9 124.944 673.4 126.144 676.8 127.677V141.777C673.333 139.51 670 137.877 666.8 136.877C663.6 135.877 660.6 135.377 657.8 135.377C653.867 135.377 650.533 136.077 647.8 137.477C645.133 138.877 643.067 141.21 641.6 144.477C640.2 147.744 639.5 152.144 639.5 157.677C639.5 163.21 640.2 167.577 641.6 170.777C643.067 173.977 645.2 176.277 648 177.677C650.867 179.01 654.367 179.677 658.5 179.677C660.967 179.677 663.767 179.21 666.9 178.277C670.033 177.344 673.333 175.744 676.8 173.477V187.577C674.933 188.51 672.8 189.344 670.4 190.077C668.067 190.744 665.6 191.277 663 191.677C660.467 192.077 658 192.277 655.6 192.277ZM718.788 192.377C712.188 192.377 706.455 191.144 701.588 188.677C696.722 186.144 692.922 182.31 690.188 177.177C687.522 172.044 686.188 165.544 686.188 157.677C686.188 146.277 689.055 137.644 694.788 131.777C700.522 125.91 708.522 122.977 718.788 122.977C725.388 122.977 731.122 124.244 735.988 126.777C740.922 129.244 744.722 133.01 747.388 138.077C750.055 143.144 751.388 149.644 751.388 157.577C751.388 169.044 748.522 177.71 742.788 183.577C737.122 189.444 729.122 192.377 718.788 192.377ZM718.788 179.077C722.188 179.077 725.055 178.377 727.388 176.977C729.788 175.577 731.588 173.31 732.788 170.177C734.055 166.977 734.688 162.777 734.688 157.577C734.688 152.31 734.055 148.11 732.788 144.977C731.588 141.844 729.788 139.61 727.388 138.277C725.055 136.877 722.188 136.177 718.788 136.177C715.388 136.177 712.522 136.877 710.188 138.277C707.855 139.677 706.055 141.944 704.788 145.077C703.588 148.21 702.988 152.444 702.988 157.777C702.988 163.044 703.588 167.244 704.788 170.377C706.055 173.444 707.855 175.677 710.188 177.077C712.522 178.41 715.388 179.077 718.788 179.077ZM762.819 190.977V124.277H789.619C800.952 124.277 809.285 127.11 814.619 132.777C819.952 138.377 822.619 146.677 822.619 157.677C822.619 168.61 819.952 176.91 814.619 182.577C809.285 188.177 800.952 190.977 789.619 190.977H762.819ZM779.019 178.477H787.719C793.719 178.477 798.252 176.81 801.319 173.477C804.452 170.144 806.019 164.877 806.019 157.677C806.019 150.344 804.452 145.044 801.319 141.777C798.252 138.444 793.719 136.777 787.719 136.777H779.019V178.477ZM833.913 190.977V124.277H879.612V136.777H850.113V151.277H875.713V163.877H850.113V178.477H879.612V190.977H833.913ZM893.19 190.977V124.277H925.69C933.223 124.277 939.123 126.044 943.39 129.577C947.657 133.044 949.79 138.344 949.79 145.477C949.79 148.41 949.19 151.31 947.99 154.177C946.79 156.977 945.023 159.41 942.69 161.477C940.357 163.477 937.423 164.777 933.89 165.377L932.89 159.877L953.19 190.977H932.59L915.89 161.877L923.09 167.977H909.39V190.977H893.19ZM909.39 156.077H922.99C925.857 156.077 928.123 155.31 929.79 153.777C931.457 152.244 932.29 149.71 932.29 146.177C932.29 143.11 931.523 140.777 929.99 139.177C928.523 137.577 926.423 136.777 923.69 136.777H909.39V156.077Z" fill="white"/>
<defs>
<filter id="filter0_d_71_14" x="74.3795" y="72.7687" width="280.856" height="248.981" filterUnits="userSpaceOnUse" color-interpolation-filters="sRGB">
<feFlood flood-opacity="0" result="BackgroundImageFix"/>
<feColorMatrix in="SourceAlpha" type="matrix" values="0 0 0 0 0 0 0 0 0 0 0 0 0 0 0 0 0 0 127 0" result="hardAlpha"/>
<feOffset dx="10" dy="10"/>
<feGaussianBlur stdDeviation="10"/>
<feComposite in2="hardAlpha" operator="out"/>
<feColorMatrix type="matrix" values="0 0 0 0 0 0 0 0 0 0 0 0 0 0 0 0 0 0 0.25 0"/>
<feBlend mode="normal" in2="BackgroundImageFix" result="effect1_dropShadow_71_14"/>
<feBlend mode="normal" in="SourceGraphic" in2="effect1_dropShadow_71_14" result="shape"/>
</filter>
<filter id="filter1_d_71_14" x="282.594" y="7.22485" width="157.516" height="338.118" filterUnits="userSpaceOnUse" color-interpolation-filters="sRGB">
<feFlood flood-opacity="0" result="BackgroundImageFix"/>
<feColorMatrix in="SourceAlpha" type="matrix" values="0 0 0 0 0 0 0 0 0 0 0 0 0 0 0 0 0 0 127 0" result="hardAlpha"/>
<feOffset dx="5" dy="20"/>
<feGaussianBlur stdDeviation="15"/>
<feComposite in2="hardAlpha" operator="out"/>
<feColorMatrix type="matrix" values="0 0 0 0 0 0 0 0 0 0 0 0 0 0 0 0 0 0 0.25 0"/>
<feBlend mode="normal" in2="BackgroundImageFix" result="effect1_dropShadow_71_14"/>
<feBlend mode="normal" in="SourceGraphic" in2="effect1_dropShadow_71_14" result="shape"/>
</filter>
<linearGradient id="paint0_linear_71_14" x1="253.334" y1="19.5677" x2="-150.23" y2="266.138" gradientUnits="userSpaceOnUse">
<stop stop-color="#ECF00D"/>
<stop offset="1" stop-color="#F2F469"/>
</linearGradient>
<linearGradient id="paint1_linear_71_14" x1="356.352" y1="17.2249" x2="356.352" y2="295.342" gradientUnits="userSpaceOnUse">
<stop stop-color="#ECF00D"/>
<stop offset="1" stop-color="#F2F469"/>
</linearGradient>
</defs>
</svg>
